<?xml version="1.0" standalone="no"?>
<!DOCTYPE svg PUBLIC "-//W3C//DTD SVG 20010904//EN"
 "http://www.w3.org/TR/2001/REC-SVG-20010904/DTD/svg10.dtd">
<svg version="1.0" xmlns="http://www.w3.org/2000/svg"
 width="133.000000pt" height="31.000000pt" viewBox="0 0 133.000000 31.000000"
 preserveAspectRatio="xMidYMid meet">

<g transform="translate(0.000000,31.000000) scale(0.100000,-0.100000)"
fill="#000000" stroke="none">
<path d="M310 155 l0 -145 483 0 c456 0 485 1 500 18 14 15 17 41 17 133 0 76
-4 119 -12 127 -9 9 -134 12 -500 12 l-488 0 0 -145z m640 0 c0 -78 -2 -85
-20 -85 -18 0 -20 7 -20 85 0 78 2 85 20 85 18 0 20 -7 20 -85z m60 70 c0 -9
-9 -15 -25 -15 -16 0 -25 6 -25 15 0 9 9 15 25 15 16 0 25 -6 25 -15z m-460
-25 c0 -16 4 -30 8 -30 5 0 21 14 37 30 17 18 39 30 54 30 l25 0 -33 -34 -33
-34 33 -41 c35 -45 46 -52 29 -22 -17 32 -12 58 16 80 31 24 59 26 94 7 23
-13 25 -12 37 15 15 36 31 36 63 3 22 -24 23 -27 7 -39 -22 -16 -23 -65 -1
-65 24 0 11 -24 -15 -28 -32 -5 -51 15 -53 57 l-1 36 -4 -33 c-6 -46 -35 -61
-116 -60 -65 0 -69 2 -94 34 -20 27 -29 32 -39 23 -8 -6 -14 -22 -14 -35 0
-17 -6 -24 -20 -24 -18 0 -20 7 -20 80 0 73 2 80 20 80 16 0 20 -7 20 -30z
m455 -65 c0 -53 -2 -60 -20 -60 -17 0 -20 8 -23 49 -4 60 3 79 25 74 15 -3 18
-14 18 -63z m55 55 c0 -6 8 -5 19 2 15 9 25 9 45 0 23 -10 26 -17 26 -67 0
-48 -2 -55 -20 -55 -17 0 -20 7 -20 46 0 41 -2 45 -22 42 -19 -2 -24 -10 -26
-45 -3 -35 -7 -43 -23 -43 -17 0 -19 7 -19 65 0 58 2 65 20 65 11 0 20 -5 20
-10z"/>
<path d="M714 155 c-15 -11 -17 -17 -8 -32 16 -26 58 -24 62 4 4 30 -29 47
-54 28z"/>
<path d="M20 122 c0 -80 12 -100 60 -108 45 -6 69 8 51 30 -8 9 -22 16 -32 16
-14 0 -19 7 -19 25 0 21 -45 105 -56 105 -2 0 -4 -31 -4 -68z"/>
</g>
</svg>
