<?xml version="1.0" standalone="no"?>
<!DOCTYPE svg PUBLIC "-//W3C//DTD SVG 20010904//EN"
 "http://www.w3.org/TR/2001/REC-SVG-20010904/DTD/svg10.dtd">
<svg version="1.0" xmlns="http://www.w3.org/2000/svg"
 width="133.000000pt" height="31.000000pt" viewBox="0 0 133.000000 31.000000"
 preserveAspectRatio="xMidYMid meet">

<g transform="translate(0.000000,31.000000) scale(0.100000,-0.100000)"
fill="#000000" stroke="none">
<path d="M310 155 l0 -145 483 0 c456 0 485 1 500 18 14 15 17 41 17 133 0 76
-4 119 -12 127 -9 9 -134 12 -500 12 l-488 0 0 -145z m66 20 c8 -42 24 -56 24
-21 0 31 9 56 21 56 5 0 8 -30 8 -67 -2 -60 -3 -63 -9 -28 l-7 40 -8 -32 c-10
-43 -21 -42 -31 5 l-8 37 -6 -45 c-7 -42 -7 -40 -8 23 -2 71 13 91 24 32z
m121 -62 c-2 -21 -4 -6 -4 32 0 39 2 55 4 38 2 -18 2 -50 0 -70z m119 85 c5
-8 2 -9 -10 -5 -12 5 -20 -1 -28 -17 -15 -34 -3 -74 25 -79 20 -3 21 -4 3 -12
-25 -11 -46 18 -46 65 0 50 36 81 56 48z m100 -55 c0 -34 -4 -60 -8 -57 -4 3
-8 14 -8 24 0 10 -5 22 -11 26 -8 5 -10 -1 -5 -19 3 -14 2 -29 -4 -32 -6 -4
-10 18 -10 60 0 63 1 66 23 63 20 -3 22 -9 23 -65z m112 55 c26 -26 8 -118
-23 -118 -16 0 -38 60 -30 83 3 10 7 24 10 32 5 18 26 20 43 3z"/>
<path d="M690 175 c0 -15 4 -24 10 -20 6 3 10 12 10 20 0 8 -4 17 -10 20 -6 4
-10 -5 -10 -20z"/>
<path d="M797 194 c-11 -12 -8 -82 4 -90 14 -8 29 14 29 42 0 24 -23 58 -33
48z"/>
<path d="M160 144 c0 -8 6 -11 15 -8 8 4 15 9 15 13 0 4 -7 8 -15 8 -8 0 -15
-6 -15 -13z"/>
</g>
</svg>
